<mxfile host="65bd71144e">
    <diagram id="BJsR8BCff1BN2HqnGR0e" name="第 1 页">
        <mxGraphModel dx="648" dy="489" grid="1" gridSize="10" guides="1" tooltips="1" connect="1" arrows="1" fold="1" page="1" pageScale="1" pageWidth="1600" pageHeight="1200" math="0" shadow="0">
            <root>
                <mxCell id="0"/>
                <mxCell id="1" parent="0"/>
                <mxCell id="21" value="&lt;span&gt;Readable&lt;/span&gt;" style="text;html=1;align=center;verticalAlign=middle;resizable=0;points=[];autosize=1;strokeColor=none;fillColor=none;fontSize=20;" parent="1" vertex="1">
                    <mxGeometry x="380" y="100" width="100" height="30" as="geometry"/>
                </mxCell>
                <mxCell id="55" value="fs.read()" style="edgeStyle=none;html=1;fontSize=12;" parent="1" source="22" target="23" edge="1">
                    <mxGeometry relative="1" as="geometry"/>
                </mxCell>
                <mxCell id="22" value="文件" style="rounded=1;whiteSpace=wrap;html=1;fontSize=12;fillColor=#60a917;fontColor=#ffffff;strokeColor=#2D7600;" parent="1" vertex="1">
                    <mxGeometry x="160" y="240" width="130" height="40" as="geometry"/>
                </mxCell>
                <mxCell id="26" value="" style="edgeStyle=none;html=1;fontSize=20;" parent="1" source="23" target="24" edge="1">
                    <mxGeometry relative="1" as="geometry"/>
                </mxCell>
                <mxCell id="23" value="push()" style="rounded=1;whiteSpace=wrap;html=1;fontSize=12;fillColor=#6d8764;fontColor=#ffffff;strokeColor=#3A5431;" parent="1" vertex="1">
                    <mxGeometry x="160" y="330" width="130" height="40" as="geometry"/>
                </mxCell>
                <mxCell id="29" value="on('data')" style="edgeStyle=none;html=1;fontSize=12;exitX=1;exitY=0;exitDx=0;exitDy=37.5;exitPerimeter=0;entryX=0;entryY=0.25;entryDx=0;entryDy=0;" parent="1" source="24" target="46" edge="1">
                    <mxGeometry relative="1" as="geometry">
                        <mxPoint x="470" y="290" as="sourcePoint"/>
                        <mxPoint x="640" y="260" as="targetPoint"/>
                        <Array as="points">
                            <mxPoint x="490" y="270"/>
                        </Array>
                    </mxGeometry>
                </mxCell>
                <mxCell id="33" value="" style="edgeStyle=none;html=1;fontSize=12;entryX=0;entryY=0.6;entryDx=0;entryDy=0;entryPerimeter=0;" parent="1" target="46" edge="1">
                    <mxGeometry relative="1" as="geometry">
                        <mxPoint x="460" y="310" as="sourcePoint"/>
                        <mxPoint x="640" y="290" as="targetPoint"/>
                    </mxGeometry>
                </mxCell>
                <mxCell id="36" value="resume()" style="edgeLabel;html=1;align=center;verticalAlign=middle;resizable=0;points=[];fontSize=12;" parent="33" vertex="1" connectable="0">
                    <mxGeometry x="-0.0909" y="2" relative="1" as="geometry">
                        <mxPoint as="offset"/>
                    </mxGeometry>
                </mxCell>
                <mxCell id="24" value="" style="shape=cylinder3;whiteSpace=wrap;html=1;boundedLbl=1;backgroundOutline=1;size=15;fontSize=20;fillColor=#fa6800;fontColor=#000000;strokeColor=#C73500;" parent="1" vertex="1">
                    <mxGeometry x="400" y="260" width="60" height="120" as="geometry"/>
                </mxCell>
                <mxCell id="27" value="BufferList" style="text;html=1;align=center;verticalAlign=middle;resizable=0;points=[];autosize=1;strokeColor=none;fillColor=none;fontSize=12;" parent="1" vertex="1">
                    <mxGeometry x="395" y="420" width="70" height="20" as="geometry"/>
                </mxCell>
                <mxCell id="31" value="数据来源" style="text;html=1;align=center;verticalAlign=middle;resizable=0;points=[];autosize=1;strokeColor=none;fillColor=none;fontSize=12;" parent="1" vertex="1">
                    <mxGeometry x="195" y="420" width="60" height="20" as="geometry"/>
                </mxCell>
                <mxCell id="32" value="消费" style="text;html=1;align=center;verticalAlign=middle;resizable=0;points=[];autosize=1;strokeColor=none;fillColor=none;fontSize=12;" parent="1" vertex="1">
                    <mxGeometry x="630" y="420" width="40" height="20" as="geometry"/>
                </mxCell>
                <mxCell id="37" value="暂停模式" style="text;html=1;align=center;verticalAlign=middle;resizable=0;points=[];autosize=1;strokeColor=none;fillColor=none;fontSize=12;" parent="1" vertex="1">
                    <mxGeometry x="395" y="200" width="60" height="20" as="geometry"/>
                </mxCell>
                <mxCell id="40" value="" style="edgeStyle=none;html=1;fontSize=12;exitX=1;exitY=0.5;exitDx=0;exitDy=0;exitPerimeter=0;entryX=-0.017;entryY=0.85;entryDx=0;entryDy=0;entryPerimeter=0;" parent="1" source="24" target="46" edge="1">
                    <mxGeometry relative="1" as="geometry">
                        <mxPoint x="460" y="330" as="sourcePoint"/>
                        <mxPoint x="640" y="310" as="targetPoint"/>
                        <Array as="points">
                            <mxPoint x="530" y="320"/>
                        </Array>
                    </mxGeometry>
                </mxCell>
                <mxCell id="41" value="pipe()" style="edgeLabel;html=1;align=center;verticalAlign=middle;resizable=0;points=[];fontSize=12;" parent="40" vertex="1" connectable="0">
                    <mxGeometry x="-0.0909" y="2" relative="1" as="geometry">
                        <mxPoint y="-11" as="offset"/>
                    </mxGeometry>
                </mxCell>
                <mxCell id="43" value="获取数据" style="ellipse;whiteSpace=wrap;html=1;fontSize=12;" parent="1" vertex="1">
                    <mxGeometry x="760" y="330" width="120" height="80" as="geometry"/>
                </mxCell>
                <mxCell id="48" value="" style="edgeStyle=none;html=1;fontSize=12;" parent="1" source="46" edge="1">
                    <mxGeometry relative="1" as="geometry">
                        <mxPoint x="780" y="341.33333333333337" as="targetPoint"/>
                    </mxGeometry>
                </mxCell>
                <mxCell id="46" value="流动模式" style="rounded=0;whiteSpace=wrap;html=1;fontSize=12;fillColor=#a0522d;fontColor=#ffffff;strokeColor=#6D1F00;" parent="1" vertex="1">
                    <mxGeometry x="640" y="200" width="60" height="80" as="geometry"/>
                </mxCell>
                <mxCell id="49" value="" style="edgeStyle=none;html=1;fontSize=12;exitX=0.855;exitY=1;exitDx=0;exitDy=-4.35;exitPerimeter=0;entryX=0.033;entryY=0.713;entryDx=0;entryDy=0;entryPerimeter=0;" parent="1" source="24" target="43" edge="1">
                    <mxGeometry relative="1" as="geometry">
                        <mxPoint x="460" y="360" as="sourcePoint"/>
                        <mxPoint x="640" y="350" as="targetPoint"/>
                        <Array as="points">
                            <mxPoint x="590" y="400"/>
                        </Array>
                    </mxGeometry>
                </mxCell>
                <mxCell id="50" value="read()" style="edgeLabel;html=1;align=center;verticalAlign=middle;resizable=0;points=[];fontSize=12;" parent="49" vertex="1" connectable="0">
                    <mxGeometry x="-0.0909" y="2" relative="1" as="geometry">
                        <mxPoint as="offset"/>
                    </mxGeometry>
                </mxCell>
                <mxCell id="51" value="" style="edgeStyle=none;html=1;fontSize=12;exitX=0.633;exitY=1.025;exitDx=0;exitDy=0;exitPerimeter=0;" parent="1" source="46" edge="1">
                    <mxGeometry relative="1" as="geometry">
                        <mxPoint x="470" y="330" as="sourcePoint"/>
                        <mxPoint x="460" y="360" as="targetPoint"/>
                        <Array as="points">
                            <mxPoint x="650" y="343"/>
                        </Array>
                    </mxGeometry>
                </mxCell>
                <mxCell id="52" value="unpipe()" style="edgeLabel;html=1;align=center;verticalAlign=middle;resizable=0;points=[];fontSize=12;" parent="51" vertex="1" connectable="0">
                    <mxGeometry x="-0.0909" y="2" relative="1" as="geometry">
                        <mxPoint y="-11" as="offset"/>
                    </mxGeometry>
                </mxCell>
                <mxCell id="53" value="" style="edgeStyle=none;html=1;fontSize=12;exitX=0.25;exitY=1;exitDx=0;exitDy=0;entryX=1;entryY=0;entryDx=0;entryDy=82.5;entryPerimeter=0;" parent="1" source="46" target="24" edge="1">
                    <mxGeometry relative="1" as="geometry">
                        <mxPoint x="687.98" y="292" as="sourcePoint"/>
                        <mxPoint x="470" y="352.5" as="targetPoint"/>
                        <Array as="points">
                            <mxPoint x="620" y="330"/>
                        </Array>
                    </mxGeometry>
                </mxCell>
                <mxCell id="54" value="pause()" style="edgeLabel;html=1;align=center;verticalAlign=middle;resizable=0;points=[];fontSize=12;" parent="53" vertex="1" connectable="0">
                    <mxGeometry x="-0.0909" y="2" relative="1" as="geometry">
                        <mxPoint y="-11" as="offset"/>
                    </mxGeometry>
                </mxCell>
                <mxCell id="56" value="write() 原理" style="text;html=1;align=center;verticalAlign=middle;resizable=0;points=[];autosize=1;strokeColor=none;fillColor=none;" vertex="1" parent="1">
                    <mxGeometry x="260" y="850" width="80" height="20" as="geometry"/>
                </mxCell>
                <mxCell id="58" value="1、规格化参数（chunk, encoding, cb)&lt;br&gt;&lt;div&gt;&lt;span&gt;2、数据转 buffer&lt;/span&gt;&lt;/div&gt;&lt;div&gt;&lt;span&gt;3、writeOrBuffer()&lt;/span&gt;&lt;/div&gt;" style="rounded=0;whiteSpace=wrap;html=1;fillColor=#60a917;fontColor=#ffffff;strokeColor=#2D7600;align=left;" vertex="1" parent="1">
                    <mxGeometry x="85" y="960" width="280" height="280" as="geometry"/>
                </mxCell>
                <mxCell id="61" value="&lt;span style=&quot;color: rgb(255 , 255 , 255) ; text-align: left&quot;&gt;Writable.prototype.write&lt;/span&gt;" style="text;html=1;align=center;verticalAlign=middle;resizable=0;points=[];autosize=1;strokeColor=none;fillColor=none;" vertex="1" parent="1">
                    <mxGeometry x="80" y="930" width="140" height="20" as="geometry"/>
                </mxCell>
            </root>
        </mxGraphModel>
    </diagram>
</mxfile>
